<?xml version="1.0" encoding="UTF-8" standalone="no"?>
<!-- Created with Inkscape (http://www.inkscape.org/) -->

<svg
   xmlns:dc="http://purl.org/dc/elements/1.1/"
   xmlns:cc="http://creativecommons.org/ns#"
   xmlns:rdf="http://www.w3.org/1999/02/22-rdf-syntax-ns#"
   xmlns:svg="http://www.w3.org/2000/svg"
   xmlns="http://www.w3.org/2000/svg"
   xmlns:sodipodi="http://sodipodi.sourceforge.net/DTD/sodipodi-0.dtd"
   xmlns:inkscape="http://www.inkscape.org/namespaces/inkscape"
   width="708.66144"
   height="857.81506"
   id="svg3007"
   version="1.1"
   inkscape:version="0.91 r13725"
   sodipodi:docname="Tux-Shirt.svg">
  <defs
     id="defs3009" />
  <sodipodi:namedview
     id="base"
     pagecolor="#ffffff"
     bordercolor="#666666"
     borderopacity="1.0"
     inkscape:pageopacity="0.0"
     inkscape:pageshadow="2"
     inkscape:zoom="0.7"
     inkscape:cx="141.69319"
     inkscape:cy="421.99616"
     inkscape:document-units="px"
     inkscape:current-layer="layer1"
     showgrid="false"
     inkscape:window-width="1920"
     inkscape:window-height="1017"
     inkscape:window-x="-8"
     inkscape:window-y="-8"
     inkscape:window-maximized="1"
     units="cm"
     fit-margin-top="0"
     fit-margin-left="0"
     fit-margin-right="0"
     fit-margin-bottom="0" />
  <metadata
     id="metadata3012">
    <rdf:RDF>
      <cc:Work
         rdf:about="">
        <dc:format>image/svg+xml</dc:format>
        <dc:type
           rdf:resource="http://purl.org/dc/dcmitype/StillImage" />
        <dc:title></dc:title>
      </cc:Work>
    </rdf:RDF>
  </metadata>
  <g
     inkscape:label="Layer 1"
     inkscape:groupmode="layer"
     id="layer1"
     transform="translate(-35.433071,63.88618)">
    <path
       inkscape:connector-curvature="0"
       style="color:#000000;font-style:normal;font-variant:normal;font-weight:normal;font-stretch:normal;font-size:medium;line-height:normal;font-family:'Bitstream Vera Sans';-inkscape-font-specification:'Bitstream Vera Sans';text-indent:0;text-align:start;text-decoration:none;text-decoration-line:none;letter-spacing:normal;word-spacing:normal;text-transform:none;direction:ltr;block-progression:tb;writing-mode:lr-tb;baseline-shift:baseline;text-anchor:start;display:inline;overflow:visible;visibility:visible;fill:#1e1e1e;fill-opacity:1;stroke:none;stroke-width:309;marker:none;enable-background:accumulate"
       d="m 407.78259,-63.885865 c -5.50873,-0.01007 -11.25467,0.221097 -17.24663,0.698832 -151.44034,12.19639 -111.27731,172.185293 -113.52498,225.760433 -2.76559,39.17912 -10.7093,70.05493 -37.65515,108.35728 -31.65734,37.64621 -76.22729,98.57709 -97.34124,162.00402 -9.96481,29.93478 -14.70669,60.44635 -10.32746,89.32352 -1.3718,1.22846 -2.67777,2.51556 -3.91957,3.84127 -9.29459,9.92281 -16.16224,21.94573 -23.81454,30.04053 -7.149273,7.13157 -17.335189,9.84418 -28.528667,13.86011 -11.197757,4.01773 -23.49204,9.94102 -30.954745,24.26137 0,0 0,0.005 -0.005,0.007 -0.01218,0.0238 -0.02547,0.0461 -0.03816,0.0703 l 0,0 c -6.755617,12.61799 -4.747277,27.1486 -2.684066,40.61093 2.063272,13.46217 4.152016,26.18346 1.379482,34.81434 -8.862262,24.22286 -9.993724,40.9783 -3.754978,53.13208 6.252047,12.17909 19.106775,17.55476 33.635407,20.58924 29.057347,6.06892 68.408607,4.56076 99.421957,20.99815 l 2.66563,-5.02968 -2.63804,5.04467 c 33.2013,17.35854 66.86088,23.52414 93.71531,17.39039 19.4699,-4.44703 35.27484,-16.04026 43.39171,-33.87948 21.00445,-0.10329 44.05315,-8.9992 80.97431,-11.03212 25.04734,-2.01755 56.33588,8.8946 92.32544,6.89621 0.94075,3.90462 2.30228,7.66025 4.166,11.22902 0.0191,0.0367 0.037,0.073 0.0565,0.10928 13.95143,27.89813 39.87419,40.65877 67.49992,38.47853 27.66216,-2.18303 57.07262,-18.49393 80.84647,-46.78632 l -4.35833,-3.6627 4.39165,3.62239 c 22.66004,-27.47602 60.27198,-38.86926 85.21172,-53.91132 12.46992,-7.52124 22.58833,-16.93894 23.37012,-30.61751 0.78137,-13.6717 -7.24514,-28.99303 -25.70186,-49.48067 0,0 -0.005,-0.005 -0.005,-0.005 -0.007,-0.009 -0.0144,-0.017 -0.0216,-0.0255 -6.06426,-6.85303 -8.95726,-19.55446 -12.06623,-33.08031 -3.10684,-13.51762 -6.57481,-28.09935 -17.67261,-37.54916 l 0,0 c -0.0222,-0.0196 -0.0446,-0.0371 -0.0668,-0.0565 0,0 0,0 0,0 -4.41677,-3.84869 -9.00656,-6.46081 -13.62872,-8.21572 15.42945,-45.75986 9.37563,-91.32556 -6.19944,-132.50113 -19.115,-50.53385 -52.48693,-94.56634 -77.97362,-124.68843 -28.5282,-35.98392 -56.43129,-70.14776 -55.88163,-120.60662 0.84975,-77.011218 8.47096,-219.826209 -127.04556,-220.011161 z m 18.34628,118.643307 c 7.68981,0 14.25742,2.25397 21.0038,7.15062 6.85352,4.97429 11.79099,11.20136 15.77046,19.89724 3.90574,8.47479 5.78493,16.765228 5.96918,26.603428 0,0.25793 0,0.47896 0.0737,0.7369 0.0737,10.096 -1.65808,18.68131 -5.49019,27.45088 -2.18659,5.00397 -4.69769,9.20386 -7.70326,12.83995 -1.02037,-0.48987 -2.08011,-0.96088 -3.17921,-1.41285 l 0,0 c -7.61844,-3.263 -13.4627,-5.33952 -18.33357,-7.02968 1.76566,-2.12238 3.23589,-4.63951 4.52871,-7.78619 1.95288,-4.75319 2.9109,-9.39599 3.09513,-14.92295 0,-0.22114 0.0737,-0.40539 0.0737,-0.66331 0.1105,-5.30584 -0.58955,-9.83807 -2.13711,-14.4808 -1.62126,-4.86374 -3.6847,-8.364138 -6.66927,-11.275048 -2.98459,-2.91102 -5.96917,-4.2374 -9.54336,-4.34805 -0.16756,-0.0101 -0.33463,-0.0101 -0.49969,-0.0101 -3.36198,0.0101 -6.28124,1.16298 -9.30153,3.6916 -3.16882,2.65307 -5.527,6.042818 -7.47993,10.759258 -1.95287,4.71634 -2.9109,9.39585 -3.09508,14.95979 -0.037,0.22114 -0.037,0.40539 -0.037,0.62643 -0.0637,3.05835 0.13058,5.86005 0.6022,8.58065 -6.87909,-3.42776 -13.36178,-5.76468 -19.44586,-7.21275 -0.34682,-2.63091 -0.54743,-5.34583 -0.61148,-8.18451 l 0,-0.77387 c -0.11056,-10.05921 1.54757,-18.681298 5.4165,-27.450778 3.86894,-8.76959 8.65901,-15.07045 15.40197,-20.19214 6.74295,-5.12168 13.37535,-7.47985 21.22375,-7.55355 0.12265,0 0.24528,0 0.36733,0 z m -105.25063,8.33313 c 5.10126,0.0121 9.66594,1.71632 14.38753,5.48676 5.1217,4.08989 8.99062,9.32212 12.23314,16.69153 3.24251,7.3694 4.97432,14.738698 5.45331,23.434588 l 0,0.0732 c 0.23218,3.65219 0.20379,7.09001 -0.0841,10.41947 -1.00892,0.28676 -1.99763,0.59704 -2.96615,0.93048 -5.50045,1.89336 -10.34796,4.47365 -14.57292,7.26346 0.41314,-2.91831 0.47463,-5.87927 0.15775,-9.18071 -0.0371,-0.18425 -0.0371,-0.33162 -0.0371,-0.51578 -0.44217,-4.38478 -1.36333,-8.06945 -2.91089,-11.79101 -1.65808,-3.86877 -3.50045,-6.59553 -5.93236,-8.69586 -2.20386,-1.903278 -4.28619,-2.777298 -6.57714,-2.759988 -0.23701,0 -0.47671,0.0131 -0.71849,0.0332 -2.57929,0.2209 -4.7164,1.47368 -6.743,3.942498 -2.02656,2.46871 -3.35302,5.52702 -4.31104,9.58008 -0.95803,4.05318 -1.21596,8.03266 -0.81066,12.6016 0,0.18416 0.0371,0.33171 0.0371,0.51586 0.44211,4.42167 1.32645,8.10626 2.91088,11.82791 1.62126,3.83204 3.50045,6.55868 5.93236,8.65891 0.40727,0.35174 0.81019,0.6677 1.21129,0.94998 -2.52954,1.94681 -3.7374,2.84435 -5.81024,4.36747 -1.32948,0.97552 -2.91286,2.13703 -4.75322,3.49357 -4.01343,-3.75973 -7.14438,-8.48491 -9.8819,-14.70649 -3.24251,-7.36927 -4.97432,-14.73871 -5.49018,-23.4346 l 0,-0.0732 c -0.47899,-8.69577 0.36847,-16.17572 2.76352,-23.913518 2.39505,-7.73789 5.60075,-13.33852 10.2434,-17.94451 4.6427,-4.60579 9.32229,-6.92711 14.95985,-7.2218 0.44042,-0.0242 0.87692,-0.0352 1.30918,-0.0332 z m 47.86748,60.328528 c 11.85658,-0.0458 26.12439,3.84137 43.39749,14.94721 10.60991,6.89962 18.8657,7.47626 37.87621,15.61839 l 0.0228,0.0101 0.0233,0.009 c 9.14674,3.75287 14.51541,8.64454 17.13839,13.7956 2.62293,5.15116 2.68708,10.73707 0.49165,16.61331 -4.39072,11.75274 -18.40589,24.12121 -38.07313,30.2628 l -0.0186,0.008 -0.0175,0.008 c -9.58965,3.11567 -17.95175,9.9961 -27.81012,15.63339 -9.85808,5.63699 -21.01325,10.1836 -36.18123,9.30614 0,-8e-5 0,0 0,0 -12.91279,-0.75261 -20.63157,-5.1363 -27.61094,-10.74548 -6.97955,-5.60927 -13.0616,-12.65611 -21.96762,-17.88568 l -0.0228,-0.0137 -0.0233,-0.0137 c -14.34552,-8.10836 -22.1775,-17.48651 -24.63551,-25.6166 -2.45809,-8.13013 -0.15126,-15.06986 6.96633,-20.40398 8.00219,-5.99706 13.56097,-10.07641 17.26382,-12.79381 3.67848,-2.69928 5.2089,-3.71141 6.3803,-4.8362 0.006,-0.009 0.0123,-0.0128 0.0185,-0.0183 0,0 0.005,-0.009 0.005,-0.009 6.01265,-5.69136 15.59728,-16.06039 30.04507,-21.0337 4.97264,-1.71177 10.52135,-2.81616 16.73192,-2.8407 z m 82.90989,49.03512 c -5.1165,0.30507 -10.47514,2.93936 -16.71458,6.42286 -6.2395,3.48341 -13.25602,7.9394 -20.85995,12.32752 -15.20781,8.77624 -32.71394,17.16948 -50.11162,17.16948 -17.42471,0 -31.34606,-8.04745 -41.78774,-16.32197 -5.22086,-4.13728 -9.52984,-8.30459 -12.97238,-11.52842 -1.72127,-1.61201 -3.21407,-2.98586 -4.60701,-4.05895 -1.39268,-1.07307 -2.52631,-2.1371 -4.85688,-2.1371 l -0.11168,4.89716 c -0.16687,1.63864 -0.33834,1.58812 -0.27059,1.63278 0.10871,0.0714 0.64946,0.25783 1.28044,0.74386 1.02404,0.78889 2.44551,2.07487 4.13257,3.65474 3.37415,3.15979 7.85768,7.50416 13.37774,11.87851 11.04,8.7486 26.39345,17.72443 45.81553,17.72443 19.44908,0 37.8502,-9.0906 53.3542,-18.03767 7.75193,-4.47357 14.79245,-8.93912 20.77931,-12.28148 5.98655,-3.34245 11.02348,-5.43837 13.93957,-5.61227 l -0.38693,-6.47348 z m 17.28809,23.27447 c 12.91771,50.92115 42.9627,124.47072 62.27343,160.36425 10.26433,19.04333 30.68512,59.50377 39.50787,108.25133 5.59046,-0.17127 11.74615,0.64098 18.33819,2.32708 23.06771,-59.80219 -19.56113,-124.2171 -39.0542,-142.15612 -7.86992,-7.63655 -8.2482,-11.05804 -4.34675,-10.8963 21.14919,18.70291 48.91343,56.32043 59.01476,98.78056 4.60604,19.36109 5.58806,39.71497 0.64599,59.80235 2.41794,1.00448 4.87363,2.09659 7.36243,3.27477 37.02795,18.03073 50.72215,33.70986 44.13786,55.109 -2.16863,-0.0761 -4.30183,-0.0675 -6.38252,-0.0175 -0.19419,0.005 -0.38692,0.0101 -0.58039,0.0148 5.36205,-16.9624 -6.5167,-29.47308 -38.16979,-43.79469 -32.83054,-14.44394 -58.99175,-13.00693 -63.41335,16.28631 -0.28298,1.53469 -0.51061,3.09853 -0.68399,4.68414 -2.45279,0.85176 -4.91893,1.93925 -7.39125,3.29204 -15.41611,8.43525 -23.8304,23.7408 -28.51025,42.51314 -4.67608,18.75716 -6.01663,41.43346 -7.30717,66.92419 0,0.005 0,0.009 0,0.0132 -0.78851,12.81759 -6.05827,30.15383 -11.40294,48.5158 -53.78147,38.36325 -128.42502,54.98431 -191.80023,11.73339 -4.29494,-6.79423 -9.2218,-13.52602 -14.29316,-20.16546 -3.2385,-4.23996 -6.56524,-8.454 -9.87265,-12.60867 6.5058,0.005 12.03576,-1.06037 16.50509,-3.08692 5.55787,-2.52017 9.46294,-6.56804 11.39488,-11.76454 3.86384,-10.39316 -0.0169,-25.0546 -12.38629,-41.79711 -12.36863,-16.74135 -33.31667,-35.63553 -64.09851,-54.51358 0,0 -0.005,0 -0.005,-0.005 -22.61406,-14.0691 -35.26118,-31.31359 -41.18086,-50.03678 -5.92024,-18.72483 -5.09014,-38.97245 -0.52737,-58.96299 8.7578,-38.3711 31.25988,-75.69006 45.61747,-99.10986 3.86549,-2.8442 1.38107,5.27944 -14.5349,34.83522 -14.26425,27.02229 -40.93131,89.38371 -4.41932,138.06271 0.97573,-34.64244 9.24887,-69.97344 23.13748,-103.02138 20.22983,-45.85661 62.54332,-125.37763 65.90401,-188.75699 1.73273,1.25821 7.68701,5.27572 10.34013,6.78451 0.005,0.008 0.0117,0.008 0.017,0.009 7.76249,4.57119 13.59244,11.25324 21.14318,17.32153 7.5657,6.0803 17.01729,11.33203 31.29675,12.16406 l 0,0 c 16.66707,0.96445 29.36983,-4.19787 39.77727,-10.14905 10.39178,-5.94216 18.69349,-12.51837 26.55852,-15.08535 0.0123,-0.008 0.0239,-0.008 0.0355,-0.0113 16.61951,-5.19718 29.83377,-14.39595 37.35342,-25.12494 z m 105.55922,291.52274 c 6.73161,-0.0312 14.88609,2.21313 23.81226,6.20638 24.02409,11.09092 31.54084,20.59739 24.98213,34.56235 -5.527,10.53819 -29.18268,27.30348 -45.39528,22.88189 -16.54418,-4.27423 -24.61366,-28.11415 -21.92387,-46.1322 1.44083,-12.23549 8.36135,-17.47091 18.52476,-17.51842 z m -27.18143,32.9261 c 1.35802,22.03362 12.25934,44.50549 31.53855,49.36899 21.09753,5.55873 51.51581,-12.54314 64.35873,-27.3081 2.56085,-0.1025 5.06453,-0.22799 7.49602,-0.28668 11.26569,-0.27202 20.71453,0.37107 30.36871,8.81438 l 0.0334,0.0286 0.0344,0.0286 c 7.419,6.28553 10.9455,18.16389 14.0041,31.47065 3.05844,13.3068 5.50422,27.79937 14.67654,38.12376 l 0.0137,0.0148 0.0127,0.0148 c 17.63401,19.56838 23.30213,32.7951 22.81967,41.23729 -0.48253,8.44241 -6.59507,14.70976 -17.88217,21.51734 -22.56443,13.60962 -62.54539,25.44424 -88.08231,56.37684 -22.17411,26.3884 -49.21298,40.88134 -73.02578,42.76074 -23.81279,1.87925 -44.35761,-8.00399 -56.47007,-32.31472 l -0.0276,-0.0551 -0.0286,-0.0542 c -7.51419,-14.29408 -4.38399,-36.85208 1.94594,-60.64633 6.33007,-23.79442 15.42469,-48.2261 16.64212,-68.08383 l 0,-0.0312 0,-0.0302 c 1.28789,-25.44312 2.71199,-47.66251 6.98596,-64.80656 4.27391,-17.14405 11.00373,-28.75506 22.92793,-35.27967 0.55528,-0.3038 1.10651,-0.59044 1.65463,-0.8613 z m -387.22543,1.66273 c 1.77975,0.007 3.66318,0.1558 5.66981,0.45944 13.49768,2.04462 25.26814,11.48208 36.60841,26.86358 11.34037,15.38173 21.89234,36.37883 32.73959,59.67004 l 0.0138,0.0286 0.0127,0.0276 c 8.71684,18.1933 27.11081,38.19813 42.69857,58.60595 15.58768,20.4078 27.65156,40.89263 26.08057,56.57134 l -0.007,0.0681 -0.005,0.0679 c -2.03222,26.7408 -17.11654,41.2982 -40.27247,46.58714 -23.14903,5.28718 -54.53105,0.017 -85.87605,-16.36472 -0.009,-0.005 -0.0186,-0.009 -0.0276,-0.0148 -34.67886,-18.36731 -75.93364,-16.54296 -102.397339,-22.07006 -13.235445,-2.76443 -21.871626,-6.92036 -25.835367,-14.64216 -3.964013,-7.72153 -4.052482,-21.19325 4.370898,-44.16301 l 0.03705,-0.1014 0.03333,-0.10255 c 4.165689,-12.84964 1.082883,-26.9091 -0.939592,-40.10545 -2.022476,-13.19641 -3.011543,-25.1997 1.494601,-33.56614 l 0.02074,-0.0382 0.02054,-0.0392 c 5.769358,-11.12094 14.231783,-15.09641 24.734594,-18.86442 10.502751,-3.76822 22.956785,-6.72755 32.791335,-16.58338 l 0.0509,-0.052 0.0508,-0.053 c 9.09167,-9.59117 15.92092,-21.61352 23.91357,-30.14646 6.7438,-7.19963 13.49253,-11.97133 23.66489,-12.04201 0.1177,0 0.236,0 0.35465,0 z"
       id="path154" />
    <g
       transform="matrix(0.4208051,0,0,0.4208051,129.77396,722.37655)"
       style="font-style:normal;font-weight:normal;font-size:429.75283813px;line-height:125%;font-family:Sans;letter-spacing:0px;word-spacing:0px;fill:#323232;fill-opacity:1;stroke:none"
       id="text2999">
      <g
         transform="matrix(1.3712285,0,0,1.3712285,198.86095,-921.5226)"
         id="g4202"
         style="fill:#323232;fill-opacity:1">
        <path
           style="fill:#323232;fill-opacity:1"
           inkscape:connector-curvature="0"
           id="path6"
           d="m 302.64,125.3 c 18.44,-5.52 38.68,-2.84 55.9,5.38 24.65,11.3 41.74,36.27 45.09,62.97 -8.98,-0.09 -18.11,1.2 -26.23,5.21 -7.8,-11.92 -20.1,-20.5 -33.56,-24.88 -19.73,-6.31 -41.84,-3.65 -60.1,5.85 -20.11,10.71 -33.41,31.55 -37.76,53.59 -17.15,3.14 -33.99,11.91 -43.93,26.61 -10.05,15.23 -10.73,35.13 -5.18,52.13 1.48,4.93 4.47,9.18 6.25,13.98 -9.36,0.03 -18.72,0 -28.08,0.02 -5.58,-0.15 -11.25,-0.3 -16.65,-1.88 -18.84,-5.35 -33.98,-22.25 -36.75,-41.7 -1.27,-11.99 0.53,-24.71 6.96,-35.08 7.84,-12.8 22.29,-20.4 36.92,-22.24 -1.55,-16.64 3.44,-33.7 13.78,-46.82 9.54,-12.45 24.36,-20.43 39.85,-22.34 12.69,-1.83 25.59,1.39 36.93,7.05 10.01,-17.84 26.73,-32.22 46.56,-37.85 z" />
        <path
           style="fill:#323232;fill-opacity:1"
           inkscape:connector-curvature="0"
           id="path18"
           d="m 277.59,196.69 c 11.65,-10.74 27.82,-15.24 43.4,-15.27 13.87,-0.38 27.83,4.25 38.67,12.92 5.94,4.5 10.75,10.26 15.08,16.28 15.4,-7.75 34.35,-8.74 50.19,-1.7 10.38,4.48 19.21,12.48 24.5,22.49 4.74,8.79 6.39,18.98 6,28.89 11.51,2.02 22.64,8.41 28.71,18.62 5.43,8.98 6.45,19.9 5.25,30.14 -1.19,8.37 -4.5,16.64 -10.35,22.85 -5.84,6.28 -14.44,9.68 -22.97,9.64 -67.05,-0.02 -134.09,0.01 -201.14,-0.01 -12.94,-0.24 -26.51,-4.34 -35.53,-14.03 -9.7,-9.85 -13.44,-24.06 -13.73,-37.55 -0.18,-10.77 2.76,-21.99 10.11,-30.12 9.94,-11.21 25.1,-16.31 39.68,-17.45 2.45,-16.96 9.35,-33.91 22.13,-45.7 z" />
      </g>
    </g>
  </g>
</svg>
